<svg width="383" height="200" viewBox="0 0 383 200" fill="none" xmlns="http://www.w3.org/2000/svg">
<path d="M0 60C0 26.8629 26.8629 0 60 0H383V140C383 173.137 356.137 200 323 200H0V60Z" fill="#7BB4F6"/>
<path d="M109.898 90.199C109.898 92.9594 109.365 95.5636 108.297 98.0115C107.255 100.433 105.823 102.556 104 104.379C102.203 106.176 100.094 107.595 97.6719 108.636C95.25 109.678 92.6589 110.199 89.8984 110.199H57.75V102.308H89.8984C91.5651 102.308 93.1276 101.996 94.5859 101.371C96.0443 100.72 97.3073 99.8474 98.375 98.7537C99.4688 97.6599 100.328 96.3839 100.953 94.9255C101.578 93.4412 101.891 91.8656 101.891 90.199C101.891 88.5323 101.578 86.9698 100.953 85.5115C100.328 84.0531 99.4688 82.7901 98.375 81.7224C97.3073 80.6287 96.0443 79.7693 94.5859 79.1443C93.1276 78.5193 91.5651 78.2068 89.8984 78.2068H53.2578V126.215H45.25V70.199H89.8984C92.6589 70.199 95.25 70.7328 97.6719 71.8005C100.094 72.8422 102.203 74.2745 104 76.0974C105.823 77.8943 107.255 80.0037 108.297 82.4255C109.365 84.8474 109.898 87.4386 109.898 90.199ZM176.539 126.215H118.609V70.199H176.539V78.2068H126.617V118.207H176.539V126.215ZM169.742 102.23H130.602V94.2224H169.742V102.23ZM251.148 90.199C251.148 92.9594 250.615 95.5636 249.547 98.0115C248.505 100.433 247.073 102.556 245.25 104.379C243.453 106.176 241.344 107.595 238.922 108.636C236.5 109.678 233.909 110.199 231.148 110.199H199V102.308H231.148C232.815 102.308 234.378 101.996 235.836 101.371C237.294 100.72 238.557 99.8474 239.625 98.7537C240.719 97.6599 241.578 96.3839 242.203 94.9255C242.828 93.4412 243.141 91.8656 243.141 90.199C243.141 88.5323 242.828 86.9698 242.203 85.5115C241.578 84.0531 240.719 82.7901 239.625 81.7224C238.557 80.6287 237.294 79.7693 235.836 79.1443C234.378 78.5193 232.815 78.2068 231.148 78.2068H194.508V126.215H186.5V70.199H231.148C233.909 70.199 236.5 70.7328 238.922 71.8005C241.344 72.8422 243.453 74.2745 245.25 76.0974C247.073 77.8943 248.505 80.0037 249.547 82.4255C250.615 84.8474 251.148 87.4386 251.148 90.199ZM269.078 76.3708C269.026 77.699 268.818 78.962 268.453 80.1599C268.115 81.3578 267.737 82.4125 267.32 83.324C266.852 84.3917 266.318 85.4073 265.719 86.3708L260.562 86.2927C260.745 85.9542 260.927 85.5766 261.109 85.1599C261.266 84.7953 261.435 84.3656 261.617 83.8708C261.826 83.3761 262.008 82.8031 262.164 82.1521C261.461 82.0479 260.797 81.8266 260.172 81.488C259.547 81.1235 259 80.6807 258.531 80.1599C258.062 79.613 257.698 79.0011 257.438 78.324C257.177 77.6208 257.047 76.8917 257.047 76.1365C257.047 75.3292 257.203 74.561 257.516 73.8318C257.828 73.1026 258.258 72.4646 258.805 71.9177C259.352 71.3708 259.99 70.9412 260.719 70.6287C261.448 70.2901 262.229 70.1208 263.062 70.1208C263.87 70.1208 264.638 70.2901 265.367 70.6287C266.096 70.9412 266.734 71.3839 267.281 71.9568C267.828 72.5037 268.258 73.1547 268.57 73.9099C268.909 74.6651 269.078 75.4854 269.078 76.3708ZM341.773 110.199C341.773 112.439 341.357 114.535 340.523 116.488C339.69 118.415 338.544 120.108 337.086 121.566C335.654 122.998 333.961 124.131 332.008 124.965C330.081 125.798 328.01 126.215 325.797 126.215H277.125V118.207H325.797C326.917 118.207 327.958 117.998 328.922 117.582C329.885 117.165 330.719 116.592 331.422 115.863C332.151 115.134 332.724 114.288 333.141 113.324C333.557 112.334 333.766 111.293 333.766 110.199C333.766 109.105 333.557 108.077 333.141 107.113C332.724 106.149 332.151 105.303 331.422 104.574C330.719 103.845 329.885 103.272 328.922 102.855C327.958 102.439 326.917 102.23 325.797 102.23H293.141C290.953 102.23 288.883 101.814 286.93 100.98C284.977 100.147 283.271 99.0141 281.812 97.5818C280.38 96.1235 279.234 94.4177 278.375 92.4646C277.542 90.5115 277.125 88.4281 277.125 86.2146C277.125 84.0271 277.542 81.9568 278.375 80.0037C279.234 78.0505 280.38 76.3578 281.812 74.9255C283.271 73.4672 284.977 72.3214 286.93 71.488C288.883 70.6287 290.953 70.199 293.141 70.199H337.789V78.2068H293.141C292.047 78.2068 291.005 78.4151 290.016 78.8318C289.052 79.2485 288.206 79.8214 287.477 80.5505C286.747 81.2797 286.174 82.1391 285.758 83.1287C285.341 84.0922 285.133 85.1208 285.133 86.2146C285.133 87.3083 285.341 88.35 285.758 89.3396C286.174 90.3031 286.747 91.1495 287.477 91.8787C288.206 92.6078 289.052 93.1807 290.016 93.5974C291.005 94.0141 292.047 94.2224 293.141 94.2224H325.797C328.01 94.2224 330.081 94.6521 332.008 95.5115C333.961 96.3448 335.654 97.4906 337.086 98.949C338.544 100.381 339.69 102.074 340.523 104.027C341.357 105.954 341.773 108.011 341.773 110.199Z" fill="#020730"/>
</svg>
